<?xml version="1.0" standalone="no"?>
<!DOCTYPE svg PUBLIC "-//W3C//DTD SVG 20010904//EN"
 "http://www.w3.org/TR/2001/REC-SVG-20010904/DTD/svg10.dtd">
<svg version="1.0" xmlns="http://www.w3.org/2000/svg"
 width="1200.000000pt" height="1200.000000pt" viewBox="0 0 1200.000000 1200.000000"
 preserveAspectRatio="xMidYMid meet">
<metadata>
Created by potrace 1.16, written by Peter Selinger 2001-2019
</metadata>
<g transform="translate(0.000000,1200.000000) scale(0.100000,-0.100000)"
fill="#EACF35" stroke="none">
<path d="M8399 11547 c-43 -29 -74 -86 -97 -176 l-18 -70 -35 23 c-76 50 -107
56 -307 56 l-187 0 -64 -37 c-91 -54 -145 -105 -175 -165 -22 -45 -26 -65 -26
-144 l0 -92 -57 -7 c-138 -17 -293 -86 -375 -167 -96 -95 -122 -187 -116 -420
3 -134 5 -146 30 -189 60 -102 227 -219 394 -275 91 -31 127 -38 217 -42 59
-2 107 -8 107 -13 0 -4 -5 -20 -11 -36 -6 -15 -26 -77 -44 -138 -18 -60 -39
-128 -46 -150 -8 -27 -14 -171 -19 -445 -6 -300 -12 -428 -24 -495 -45 -254
-105 -375 -254 -508 -17 -15 -34 -42 -38 -60 -5 -26 -18 -40 -74 -75 -179
-112 -339 -158 -700 -202 -56 -7 -150 -30 -230 -55 -237 -76 -392 -115 -461
-115 -77 0 -164 -13 -279 -42 -69 -17 -133 -22 -345 -28 -169 -5 -300 -14
-375 -27 -93 -14 -167 -18 -385 -17 l-270 1 -154 52 c-85 28 -177 64 -205 79
-72 39 -376 276 -471 368 -112 107 -172 152 -347 255 -84 50 -182 114 -218
143 -154 123 -209 165 -281 214 -75 51 -158 136 -277 283 -71 88 -105 116
-210 172 -70 37 -84 41 -154 41 -62 1 -82 -3 -105 -20 -51 -37 -63 -76 -63
-205 l0 -117 -72 30 c-179 72 -256 84 -315 48 -58 -35 -63 -58 -63 -269 l0
-190 -41 14 c-46 17 -184 20 -222 6 -40 -15 -79 -66 -111 -143 -30 -72 -31
-76 -31 -248 0 -227 1 -229 200 -635 129 -263 223 -414 372 -600 57 -71 116
-149 131 -173 103 -164 191 -294 227 -337 23 -27 86 -135 140 -240 151 -291
159 -305 200 -375 21 -36 48 -83 61 -105 25 -45 78 -184 99 -261 8 -28 36 -95
63 -150 27 -54 69 -160 92 -234 50 -161 61 -183 157 -323 40 -59 91 -143 112
-185 22 -42 68 -114 103 -159 34 -45 104 -135 155 -200 91 -118 193 -223 333
-343 41 -36 106 -93 144 -128 38 -36 120 -98 184 -140 140 -92 567 -314 677
-352 44 -15 136 -55 205 -88 74 -35 161 -69 215 -82 49 -12 119 -34 155 -49
110 -46 260 -89 370 -106 58 -8 159 -29 225 -45 119 -30 121 -30 416 -30 l296
0 6 -107 c4 -60 18 -157 32 -218 31 -134 41 -252 56 -635 l11 -295 -22 -43
c-17 -33 -21 -52 -16 -85 4 -23 11 -177 16 -342 11 -330 15 -350 72 -385 63
-38 148 -22 193 38 18 24 20 42 20 184 l0 157 24 -22 c13 -12 57 -67 98 -122
80 -106 164 -192 201 -206 38 -15 75 -10 122 15 100 53 106 178 12 250 -39 29
-90 84 -144 153 l-47 60 55 -13 c31 -7 97 -16 147 -19 51 -4 125 -16 166 -26
98 -25 176 -25 218 1 115 70 60 260 -75 260 -16 0 -49 7 -73 15 -24 9 -92 20
-152 24 -74 6 -175 26 -321 63 l-213 53 -6 140 c-4 77 -11 250 -17 385 -12
265 -16 303 -54 488 -14 68 -26 147 -26 176 l0 53 448 6 c454 7 632 20 719 51
l41 15 6 -87 c4 -48 20 -161 37 -252 78 -429 107 -697 113 -1052 l2 -126 46
-59 c99 -127 196 -316 283 -558 33 -90 105 -137 189 -121 102 19 148 139 87
225 -33 46 -122 273 -104 267 29 -12 320 -69 378 -75 33 -4 70 -12 82 -19 12
-7 45 -12 73 -12 45 0 55 4 92 38 35 33 41 45 46 90 3 41 0 58 -18 86 -12 20
-31 41 -41 47 -36 19 -141 49 -173 49 -43 0 -354 65 -394 83 l-34 14 63 6 c34
4 94 7 133 7 39 1 91 5 116 10 25 5 98 12 162 16 131 8 164 21 198 76 35 57
24 125 -27 172 -39 37 -73 40 -246 26 -208 -17 -338 -26 -499 -35 l-137 -8 -5
24 c-3 13 -7 89 -10 169 -3 80 -10 172 -16 205 -6 33 -19 124 -30 201 -11 78
-34 209 -51 290 -25 120 -32 182 -36 320 l-6 171 34 7 c19 4 97 13 174 21 126
13 151 19 255 60 165 67 253 101 355 139 191 71 264 107 465 226 206 122 379
279 561 510 47 60 106 167 118 216 5 21 28 111 51 199 l42 160 8 285 c5 157
12 299 15 315 17 75 46 155 79 217 19 37 45 100 58 140 l23 73 0 660 c-1 727
5 641 -66 1014 -11 57 -29 170 -40 250 -31 221 -63 340 -155 579 -47 123 -61
197 -72 406 -7 128 -7 128 16 137 13 5 32 9 44 9 11 0 43 6 71 14 106 29 235
55 322 66 177 22 285 102 285 212 0 50 -35 111 -87 149 -25 18 -60 44 -77 56
-16 13 -53 30 -80 39 -28 9 -74 28 -104 42 l-54 24 28 18 c68 45 118 167 130
316 l7 89 45 40 c39 36 45 46 49 92 4 42 1 59 -17 88 -37 61 -54 65 -310 72
l-230 6 0 46 c0 25 -7 60 -16 76 -9 17 -28 53 -41 80 -13 28 -30 61 -37 75
-24 44 -189 226 -239 263 l-48 36 -2 288 c-3 264 -5 294 -25 358 -42 134 -74
185 -182 289 -83 79 -116 103 -193 140 -118 58 -213 83 -357 96 -192 17 -262
14 -301 -13z m435 -297 c98 -31 161 -69 233 -142 94 -95 106 -135 111 -366 l4
-184 -24 7 c-12 5 -81 33 -153 64 l-130 56 -187 3 c-165 3 -196 1 -263 -17
-42 -12 -95 -31 -118 -42 -71 -36 -180 -116 -233 -171 -45 -46 -203 -278 -221
-324 -5 -14 -26 -15 -167 -12 -145 3 -168 7 -235 31 -75 27 -184 91 -216 127
-15 16 -17 36 -14 134 5 145 13 157 130 206 l84 35 253 3 c285 4 304 8 337 79
46 95 -24 203 -132 203 -21 0 -57 9 -80 20 -40 18 -43 22 -43 59 0 34 5 42 34
60 29 18 49 21 153 21 133 0 124 4 226 -87 70 -61 143 -93 214 -93 120 0 162
60 163 227 0 144 -6 137 109 130 56 -3 125 -15 165 -27z m128 -912 c95 -39
191 -84 213 -100 22 -16 69 -48 105 -72 97 -64 224 -202 236 -254 3 -15 10
-39 14 -54 l9 -28 -75 0 c-63 0 -81 4 -107 23 -32 22 -34 22 -402 22 -486 -1
-564 -13 -615 -97 -39 -64 -16 -146 52 -188 24 -14 51 -20 94 -20 l62 0 25
-47 c13 -27 28 -73 32 -103 3 -30 16 -74 27 -97 22 -48 102 -125 161 -155 46
-23 170 -37 325 -38 97 0 106 2 171 35 42 20 83 51 105 77 54 63 106 173 113
241 6 55 7 57 34 57 16 0 29 -5 29 -12 0 -6 7 -19 15 -28 17 -18 59 -206 50
-221 -4 -5 -12 -9 -19 -9 -7 0 -26 -14 -44 -31 -77 -76 -38 -216 66 -235 20
-4 71 -29 112 -56 49 -32 108 -59 170 -79 52 -16 101 -33 108 -37 12 -8 -63
-28 -293 -79 -38 -9 -82 -20 -97 -25 -40 -15 -86 -65 -93 -102 -4 -17 -13 -46
-21 -64 -14 -30 -14 -58 0 -260 19 -269 28 -316 95 -489 65 -168 108 -326 127
-467 16 -122 29 -200 76 -446 l31 -165 4 -599 c3 -411 1 -614 -7 -650 -6 -28
-34 -100 -61 -160 -88 -188 -100 -254 -109 -591 -9 -307 -7 -292 -75 -538 -31
-116 -48 -146 -136 -252 -124 -148 -282 -296 -362 -336 -23 -12 -67 -39 -97
-59 -75 -51 -212 -118 -345 -170 -60 -23 -199 -78 -309 -121 -193 -77 -201
-80 -318 -89 -66 -6 -176 -21 -244 -35 -68 -14 -145 -25 -171 -25 -86 0 -143
-55 -143 -139 0 -38 -2 -41 -40 -51 -67 -18 -530 -29 -1210 -30 -552 0 -654 2
-705 16 -113 29 -240 55 -315 65 -80 10 -186 42 -316 95 -44 18 -113 40 -153
49 -40 10 -127 43 -194 75 -67 32 -151 68 -187 80 -60 20 -319 145 -470 228
-113 61 -252 158 -330 229 -42 37 -100 88 -130 112 -102 82 -221 205 -306 316
-47 61 -107 137 -135 170 -28 33 -71 101 -96 150 -25 50 -77 133 -114 186 -75
105 -89 134 -126 254 -37 124 -72 214 -112 290 -21 39 -41 86 -44 105 -7 35
-51 154 -89 240 -11 25 -59 115 -107 200 -49 85 -135 245 -192 355 -57 110
-122 223 -145 250 -52 65 -142 196 -192 282 -22 37 -62 96 -89 130 -172 218
-210 270 -274 373 -70 112 -240 449 -302 600 -28 67 -32 88 -35 199 l-4 124
28 -7 c40 -10 127 -78 158 -123 15 -21 58 -83 96 -137 39 -55 79 -118 90 -142
42 -86 137 -125 209 -87 97 51 105 168 20 275 -35 44 -38 51 -89 225 -23 74
-54 168 -70 209 -21 51 -30 92 -30 130 0 53 1 55 23 48 60 -19 143 -95 221
-204 26 -36 67 -87 92 -115 24 -27 59 -72 77 -99 42 -62 73 -86 123 -92 78
-10 154 60 154 143 0 41 -7 58 -69 170 -7 14 -22 57 -33 97 -11 39 -47 129
-80 200 -60 131 -69 166 -26 102 56 -82 226 -259 302 -313 43 -32 150 -112
235 -178 158 -122 203 -152 391 -264 74 -44 140 -95 226 -174 155 -144 459
-377 549 -421 39 -19 113 -47 165 -64 52 -17 119 -40 149 -52 111 -43 571 -55
816 -19 90 13 237 23 410 28 216 7 286 13 350 29 46 12 137 23 215 27 74 4
151 13 170 21 19 7 100 31 180 53 80 22 183 54 230 70 51 18 133 36 205 45
371 48 547 100 747 222 119 72 187 124 252 190 52 53 96 126 96 158 0 7 20 52
45 98 49 93 78 169 101 268 41 174 46 233 53 635 l7 400 47 155 c54 173 130
330 262 535 91 142 119 174 205 230 106 68 122 72 292 74 l128 1 172 -72z"/>
<path d="M7225 5744 c-60 -30 -70 -57 -67 -174 2 -115 -9 -169 -68 -315 -66
-165 -150 -293 -290 -439 -218 -228 -383 -315 -596 -316 -86 0 -84 -5 -84 156
0 127 13 180 61 256 40 62 51 146 25 195 -40 78 -154 97 -217 37 -17 -16 -41
-49 -54 -74 -24 -48 -184 -209 -275 -277 -88 -66 -193 -112 -278 -119 -80 -8
-99 1 -129 60 -36 70 -45 123 -51 311 -6 160 -10 195 -25 218 -40 61 -124 84
-188 52 -36 -19 -69 -70 -69 -106 0 -39 -59 -146 -114 -206 -43 -47 -52 -53
-88 -53 -51 0 -161 57 -229 117 -58 53 -79 110 -79 218 l0 70 37 20 c49 27 73
69 73 130 0 98 -59 150 -160 143 -48 -3 -64 -10 -103 -42 -106 -87 -132 -164
-124 -360 4 -108 10 -142 31 -194 56 -141 157 -238 349 -335 81 -41 84 -42
202 -45 l120 -3 57 34 c56 34 57 35 63 14 33 -121 128 -247 219 -294 96 -49
301 -41 439 17 39 16 106 52 147 79 l75 50 13 -81 c22 -141 84 -223 192 -255
43 -12 83 -14 200 -10 167 6 225 20 357 82 134 63 210 121 374 284 111 111
163 172 218 256 184 279 271 549 244 753 -11 84 -29 119 -75 146 -33 20 -94
20 -133 0z"/>
</g>
</svg>
