<svg width="402" height="402" viewBox="0 0 402 402" fill="none" xmlns="http://www.w3.org/2000/svg">
<circle cx="200.708" cy="200.708" r="140" transform="rotate(-46.8975 200.708 200.708)" fill="#111100" stroke="#F2C94C" stroke-width="4"/>
<circle cx="200.708" cy="200.708" r="106" transform="rotate(-46.8975 200.708 200.708)" fill="#3E82D2"/>
<circle cx="200.708" cy="200.708" r="106" transform="rotate(-46.8975 200.708 200.708)" fill="url(#paint0_linear)"/>
<circle cx="200.708" cy="200.708" r="106" transform="rotate(-46.8975 200.708 200.708)" stroke="#EACF35" stroke-width="4"/>
<path d="M98.5632 153.548L88.745 148.659C88.0861 148.331 87.4898 147.923 86.9559 147.433C86.422 146.944 86.006 146.371 85.708 145.713C85.4064 145.062 85.2746 144.331 85.3126 143.518C85.3506 142.706 85.6103 141.817 86.0916 140.85C86.8547 139.317 87.9923 138.164 89.5044 137.388L90.4355 138.991C89.7278 139.408 89.1775 139.84 88.7847 140.287C88.3884 140.742 88.0761 141.199 87.8479 141.657C87.3593 142.639 87.2929 143.562 87.6485 144.427C88.0113 145.296 88.7585 146.012 89.89 146.575L97.9357 150.581L100.134 146.166L101.821 147.006L98.5632 153.548Z" fill="#EACF35"/>
<path d="M89.7372 166.76C89.231 168.496 88.2709 169.645 86.8568 170.208C85.4405 170.778 83.7685 170.782 81.8408 170.22C80.5889 169.855 79.5435 169.325 78.7044 168.63C77.8632 167.943 77.2891 167.126 76.9822 166.178C76.6753 165.23 76.6898 164.18 77.0258 163.028C77.532 161.292 78.4944 160.136 79.913 159.558C81.3293 158.987 83.0013 158.983 84.929 159.546C86.1885 159.913 87.2351 160.439 88.0687 161.124C88.9077 161.818 89.4807 162.64 89.7876 163.588C90.0922 164.543 90.0754 165.601 89.7372 166.76ZM87.9747 166.246C88.2658 165.248 88.109 164.386 87.5042 163.659C86.9071 162.935 85.8213 162.343 84.2469 161.884C82.6879 161.429 81.4592 161.342 80.561 161.622C79.6704 161.904 79.0796 162.544 78.7884 163.542C78.4972 164.541 78.6513 165.398 79.2507 166.114C79.8577 166.833 80.9484 167.422 82.5228 167.881C84.0896 168.338 85.3182 168.426 86.2088 168.144C87.0993 167.862 87.688 167.229 87.9747 166.246Z" fill="#EACF35"/>
<path d="M78.4511 183.117C77.0601 183.034 76.0141 183.301 75.3131 183.919C74.6113 184.544 74.2103 185.33 74.1099 186.277C74.0433 186.906 74.0777 187.492 74.213 188.038C74.3483 188.583 74.5702 189.146 74.8788 189.725L73.3249 190.61C72.9179 189.972 72.6161 189.252 72.4194 188.451C72.2307 187.651 72.1802 186.837 72.2679 186.009C72.4011 184.753 72.7889 183.712 73.4314 182.887C74.081 182.071 74.9235 181.484 75.9589 181.127C76.9934 180.778 78.163 180.673 79.4677 180.811C80.7327 180.945 81.8383 181.292 82.7847 181.851C83.7302 182.417 84.4451 183.149 84.9294 184.045C85.4137 184.941 85.5947 185.966 85.4725 187.119C85.3005 188.742 84.6083 189.96 83.3959 190.773C82.1906 191.594 80.6254 191.903 78.7001 191.699C78.4853 191.676 78.2789 191.65 78.0809 191.621C77.8828 191.592 77.7091 191.562 77.5596 191.53L78.4511 183.117ZM83.68 186.953C83.7752 186.054 83.5358 185.277 82.9618 184.621C82.3877 183.964 81.441 183.522 80.1218 183.294L79.4591 189.547C80.7345 189.658 81.7306 189.482 82.4474 189.019C83.1713 188.565 83.5822 187.876 83.68 186.953Z" fill="#EACF35"/>
<path d="M89.2091 225.963L83.8154 227.345L85.397 233.518L83.5952 233.979L82.0136 227.807L75.0041 229.603L74.4143 227.301L90.4328 223.197L92.8961 232.81L91.0142 233.007L89.2091 225.963Z" fill="#EACF35"/>
<path d="M94.5885 247.52C95.3406 249.164 95.3657 250.661 94.6639 252.011C93.9653 253.369 92.7031 254.465 90.8771 255.301C89.6913 255.843 88.5538 256.126 87.4647 256.149C86.379 256.18 85.4101 255.937 84.5581 255.42C83.706 254.904 83.0304 254.1 82.5312 253.009C81.7791 251.365 81.7506 249.86 82.4458 248.495C83.1444 247.138 84.4066 246.041 86.2326 245.206C87.4257 244.66 88.5615 244.374 89.64 244.347C90.729 244.323 91.6996 244.57 92.5516 245.086C93.407 245.61 94.0859 246.421 94.5885 247.52ZM92.9189 248.283C92.4862 247.338 91.8036 246.788 90.871 246.634C89.9457 246.476 88.7374 246.739 87.246 247.421C85.7692 248.097 84.7825 248.834 84.2859 249.633C83.7965 250.429 83.7682 251.299 84.2008 252.245C84.6335 253.191 85.3108 253.739 86.2328 253.889C87.162 254.036 88.3723 253.768 89.8637 253.086C91.3478 252.407 92.3345 251.669 92.8238 250.874C93.3132 250.078 93.3448 249.215 92.9189 248.283Z" fill="#EACF35"/>
<path d="M108.663 263.057L96.7784 271.315C96.2791 271.662 96.0316 272.063 96.0359 272.518C96.0468 272.968 96.2212 273.436 96.559 273.922C96.7735 274.231 97.0062 274.503 97.2571 274.738C97.5191 274.975 97.7995 275.189 98.0983 275.381L97.0906 276.812C96.7386 276.628 96.3562 276.358 95.9432 276.002C95.5302 275.646 95.1343 275.195 94.7554 274.65C94.0753 273.671 93.807 272.703 93.9505 271.746C94.0987 270.795 94.6491 269.989 95.6017 269.327L105.91 262.165L103.712 259.002L105.15 258.002L108.663 263.057Z" fill="#EACF35"/>
<path d="M119.413 276.205L106.677 288.943L105.048 287.313L117.588 274.771L119.413 276.205ZM121.577 285.955L113.711 286.117L113.058 295.323L110.996 293.261L111.717 284.207L119.566 283.944L121.577 285.955Z" fill="#EACF35"/>
<path d="M131.154 305.755C130.866 306.169 130.722 306.517 130.721 306.798C130.725 307.074 130.836 307.355 131.055 307.644L129.707 308.637C129.275 308.249 128.96 307.82 128.76 307.35C128.567 306.885 128.548 306.365 128.703 305.791C127.991 306.017 127.265 306.053 126.524 305.899C125.784 305.745 125.078 305.436 124.408 304.97C123.364 304.244 122.744 303.376 122.551 302.365C122.357 301.353 122.596 300.365 123.266 299.399C124.015 298.322 125.011 297.786 126.253 297.792C127.507 297.796 128.926 298.348 130.509 299.448L132.017 300.495L132.565 299.707C133.062 298.991 133.202 298.333 132.985 297.734C132.775 297.14 132.292 296.58 131.536 296.055C131.188 295.813 130.747 295.571 130.215 295.328C129.689 295.089 129.096 294.877 128.436 294.691L128.912 292.976C129.718 293.176 130.453 293.428 131.118 293.734C131.782 294.039 132.37 294.37 132.883 294.726C134.217 295.653 135.003 296.652 135.242 297.724C135.488 298.801 135.246 299.865 134.515 300.916L131.154 305.755ZM125.926 303.921C126.406 304.254 126.956 304.451 127.576 304.511C128.203 304.577 128.816 304.486 129.415 304.24L131.161 301.727L129.781 300.769C128.684 300.006 127.776 299.653 127.055 299.708C126.34 299.756 125.759 300.102 125.311 300.746C124.453 301.982 124.658 303.04 125.926 303.921Z" fill="#EACF35"/>
<path d="M141.312 315.217L142.021 313.667L143.767 314.466L147.61 306.063L145.863 305.264L146.572 303.714L149.922 305.247L149.072 308.117C149.944 307.363 150.813 306.877 151.679 306.657C152.555 306.433 153.503 306.554 154.522 307.02C154.856 307.173 155.139 307.333 155.371 307.501C155.609 307.671 155.845 307.858 156.077 308.061L153.903 311.949L152.288 311.211L153.386 308.81L153.375 308.805C151.651 308.016 149.85 308.684 147.973 310.808L145.862 315.424L148.197 316.492L147.489 318.041L141.312 315.217Z" fill="#EACF35"/>
<path d="M174.194 308.3L176.357 309.139L171.957 326.321L169.992 325.817L170.208 324.2C169.023 325.218 167.709 325.542 166.268 325.173C165.214 324.903 164.41 324.413 163.858 323.701C163.315 322.984 163 322.102 162.912 321.056C162.825 320.01 162.944 318.851 163.27 317.58C163.588 316.34 164.059 315.288 164.685 314.424C165.321 313.555 166.066 312.933 166.922 312.557C167.786 312.184 168.725 312.127 169.741 312.387C171.058 312.725 172.005 313.462 172.58 314.601L174.194 308.3ZM169.872 314.291C168.911 314.045 168.069 314.238 167.346 314.871C166.63 315.505 166.07 316.612 165.665 318.193C165.262 319.767 165.199 320.993 165.478 321.874C165.764 322.757 166.356 323.313 167.255 323.543C167.898 323.708 168.499 323.668 169.057 323.423C169.625 323.172 170.132 322.839 170.577 322.424L172.11 316.438C171.911 315.891 171.62 315.433 171.236 315.062C170.862 314.685 170.407 314.428 169.872 314.291Z" fill="#EACF35"/>
<path d="M209.603 318.87C209.544 318.313 209.689 317.819 210.037 317.388C210.385 316.949 210.841 316.699 211.406 316.639C211.986 316.578 212.493 316.725 212.925 317.081C213.356 317.43 213.601 317.883 213.66 318.439C213.719 318.996 213.575 319.494 213.227 319.933C212.88 320.373 212.416 320.623 211.835 320.685C211.27 320.744 210.772 320.596 210.34 320.24C209.908 319.883 209.662 319.427 209.603 318.87ZM210.509 327.414C210.452 326.873 210.597 326.383 210.945 325.944C211.292 325.505 211.749 325.255 212.313 325.195C212.894 325.134 213.4 325.281 213.832 325.637C214.264 325.994 214.509 326.443 214.567 326.983C214.626 327.548 214.483 328.05 214.135 328.489C213.787 328.929 213.323 329.179 212.742 329.241C212.178 329.3 211.679 329.152 211.247 328.796C210.815 328.439 210.569 327.979 210.509 327.414Z" fill="#EACF35"/>
<path d="M259.872 309.929C260.3 310.788 260.462 311.66 260.357 312.543C260.255 313.416 259.887 314.247 259.253 315.037C258.622 315.816 257.723 316.496 256.556 317.077C255.424 317.641 254.329 317.972 253.27 318.071C252.211 318.169 251.22 318.073 250.297 317.782L250.831 315.813C251.586 316.036 252.366 316.121 253.171 316.069C253.976 316.016 254.822 315.769 255.71 315.327C256.29 315.038 256.781 314.677 257.183 314.245C257.587 313.802 257.846 313.316 257.958 312.786C258.073 312.246 257.986 311.686 257.697 311.106C257.469 310.648 257.181 310.304 256.835 310.075C256.492 309.834 256.029 309.703 255.445 309.681C254.862 309.658 254.098 309.73 253.154 309.897C251.429 310.202 249.989 310.245 248.833 310.025C247.678 309.805 246.808 309.107 246.223 307.933C245.841 307.167 245.717 306.388 245.851 305.598C245.981 304.8 246.333 304.053 246.906 303.356C247.48 302.66 248.246 302.072 249.206 301.594C250.244 301.077 251.225 300.776 252.148 300.692C253.078 300.604 253.992 300.68 254.89 300.922L254.372 302.842C253.61 302.64 252.873 302.587 252.161 302.683C251.453 302.768 250.787 302.965 250.164 303.276C249.376 303.668 248.792 304.173 248.412 304.792C248.028 305.403 248.009 306.056 248.355 306.75C248.562 307.166 248.85 307.465 249.218 307.648C249.583 307.824 250.087 307.903 250.731 307.886C251.382 307.866 252.234 307.763 253.286 307.579C254.199 307.419 255.066 307.349 255.889 307.368C256.715 307.377 257.47 307.573 258.153 307.957C258.832 308.333 259.405 308.991 259.872 309.929Z" fill="#EACF35"/>
<path d="M268.706 294.465C270.156 293.384 271.614 293.046 273.082 293.449C274.556 293.847 275.892 294.852 277.092 296.462C277.871 297.507 278.386 298.56 278.637 299.62C278.895 300.676 278.86 301.674 278.534 302.615C278.208 303.557 277.564 304.386 276.601 305.103C275.152 306.183 273.686 306.526 272.206 306.133C270.732 305.734 269.395 304.73 268.196 303.12C267.412 302.068 266.894 301.017 266.641 299.968C266.39 298.908 266.427 297.908 266.754 296.966C267.086 296.02 267.737 295.186 268.706 294.465ZM269.803 295.937C268.969 296.558 268.574 297.341 268.619 298.285C268.659 299.223 269.169 300.349 270.149 301.664C271.119 302.967 272.047 303.777 272.933 304.095C273.813 304.407 274.67 304.252 275.504 303.63C276.338 303.009 276.732 302.232 276.686 301.299C276.634 300.36 276.118 299.232 275.139 297.917C274.164 296.608 273.236 295.798 272.355 295.487C271.475 295.175 270.624 295.325 269.803 295.937Z" fill="#EACF35"/>
<path d="M282.368 275.521C282.86 274.996 283.35 274.566 283.837 274.233C284.318 273.895 284.815 273.615 285.329 273.394L286.046 275.051C285.633 275.224 285.238 275.452 284.863 275.736C284.487 276.009 284.135 276.32 283.807 276.671C282.637 277.921 282.552 279.013 283.551 279.948L285.321 281.604L288.24 278.485L289.347 279.866L286.6 282.801L293.863 289.599L292.297 291.272L285.034 284.475L283.008 286.639L281.729 285.442L283.754 283.278L281.993 281.63C281.421 281.094 281.058 280.48 280.905 279.789C280.758 279.092 280.807 278.378 281.055 277.645C281.302 276.901 281.74 276.193 282.368 275.521Z" fill="#EACF35"/>
<path d="M310.397 267.007C310.395 267.539 310.294 268.116 310.092 268.738C309.9 269.358 309.631 269.936 309.284 270.474C308.519 271.656 307.623 272.363 306.597 272.595C305.575 272.82 304.57 272.613 303.583 271.974L297.497 268.038L295.939 270.447L294.488 269.508L296.046 267.1L293.647 265.549L294.667 263.464L297.297 265.165L299.643 261.538L300.95 262.698L298.748 266.104L304.814 270.027C305.398 270.405 305.934 270.541 306.421 270.437C306.912 270.326 307.383 269.921 307.835 269.222C308.087 268.833 308.276 268.445 308.401 268.059C308.524 267.663 308.6 267.273 308.628 266.891L310.397 267.007Z" fill="#EACF35"/>
<path d="M320.764 247.365L319.58 250.2L310.535 248.097L318.34 253.167L317.183 255.935L304.648 253.128L305.531 251.014L316.457 253.967L308.325 248.5L309.296 246.175L318.854 248.232L309.076 242.533L309.923 240.506L320.764 247.365Z" fill="#EACF35"/>
<path d="M324.252 224.97C324.744 225.079 325.121 225.08 325.382 224.974C325.635 224.866 325.853 224.657 326.037 224.345L327.467 225.214C327.272 225.761 326.996 226.216 326.637 226.579C326.28 226.934 325.806 227.149 325.216 227.224C325.696 227.797 326.005 228.455 326.143 229.198C326.282 229.942 326.263 230.712 326.087 231.509C325.813 232.751 325.244 233.653 324.382 234.217C323.52 234.78 322.515 234.934 321.367 234.68C320.086 234.397 319.212 233.679 318.746 232.528C318.274 231.366 318.246 229.844 318.662 227.962L319.059 226.169L318.121 225.962C317.27 225.773 316.608 225.893 316.137 226.322C315.667 226.742 315.332 227.401 315.134 228.3C315.042 228.714 314.985 229.213 314.962 229.798C314.941 230.375 314.97 231.004 315.049 231.685L313.281 231.897C313.16 231.075 313.114 230.299 313.145 229.568C313.175 228.837 313.258 228.168 313.393 227.558C313.744 225.973 314.369 224.866 315.27 224.237C316.173 223.601 317.249 223.421 318.499 223.698L324.252 224.97ZM324.54 230.503C324.666 229.933 324.639 229.349 324.46 228.752C324.282 228.148 323.966 227.615 323.511 227.154L320.523 226.493L320.16 228.133C319.872 229.438 319.89 230.413 320.214 231.058C320.531 231.701 321.072 232.108 321.837 232.277C323.306 232.602 324.207 232.01 324.54 230.503Z" fill="#EACF35"/>
<path d="M329.148 211.98L327.445 211.913L327.521 209.995L318.288 209.63L318.213 211.549L316.51 211.481L316.655 207.8L319.634 207.498C318.605 206.977 317.825 206.357 317.293 205.64C316.753 204.914 316.505 203.991 316.55 202.872C316.564 202.505 316.605 202.182 316.672 201.904C316.739 201.619 316.823 201.33 316.922 201.038L321.345 201.572L321.275 203.347L318.637 203.243L318.636 203.255C318.561 205.149 319.863 206.562 322.54 207.492L327.612 207.692L327.713 205.126L329.416 205.194L329.148 211.98Z" fill="#EACF35"/>
<path d="M323.394 188.06C324.764 187.804 325.714 187.292 326.245 186.523C326.775 185.747 326.974 184.887 326.842 183.944C326.755 183.318 326.579 182.757 326.316 182.261C326.053 181.764 325.702 181.272 325.262 180.784L326.555 179.549C327.105 180.07 327.572 180.696 327.956 181.426C328.333 182.157 328.579 182.934 328.694 183.758C328.869 185.01 328.744 186.114 328.321 187.07C327.888 188.019 327.212 188.791 326.294 189.388C325.374 189.977 324.265 190.362 322.966 190.544C321.706 190.719 320.549 190.651 319.496 190.337C318.441 190.016 317.571 189.479 316.884 188.727C316.197 187.975 315.774 187.024 315.613 185.876C315.388 184.259 315.765 182.91 316.744 181.828C317.715 180.739 319.159 180.061 321.077 179.793C321.291 179.764 321.497 179.739 321.696 179.719C321.895 179.699 322.071 179.687 322.224 179.682L323.394 188.06ZM317.393 185.603C317.518 186.498 317.938 187.195 318.654 187.692C319.369 188.19 320.395 188.39 321.73 188.293L320.861 182.065C319.596 182.266 318.672 182.678 318.089 183.3C317.496 183.916 317.264 184.684 317.393 185.603Z" fill="#EACF35"/>
<path d="M304.456 139.258C305.969 138.441 307.315 137.969 308.492 137.843C309.669 137.716 310.698 137.837 311.58 138.207C312.451 138.573 313.199 139.092 313.825 139.763C314.451 140.434 314.975 141.16 315.397 141.942L317.25 145.373L302.7 153.231L300.973 150.031C300.505 149.166 300.146 148.273 299.895 147.354C299.644 146.435 299.599 145.509 299.759 144.577C299.909 143.642 300.35 142.726 301.085 141.829C301.819 140.933 302.942 140.076 304.456 139.258ZM305.653 141.476C304.436 142.133 303.526 142.788 302.923 143.441C302.317 144.087 301.94 144.718 301.791 145.334C301.642 145.951 301.639 146.544 301.783 147.112C301.922 147.673 302.125 148.2 302.391 148.693L303.229 150.245L314.485 144.166L313.635 142.593C313.358 142.079 313.003 141.616 312.571 141.204C312.139 140.792 311.607 140.497 310.975 140.32C310.34 140.136 309.584 140.126 308.709 140.289C307.833 140.453 306.815 140.848 305.653 141.476Z" fill="#EACF35"/>
<path d="M299.861 127.258C300.909 126.34 301.466 125.415 301.531 124.483C301.591 123.545 301.324 122.704 300.73 121.959C300.336 121.465 299.899 121.072 299.42 120.779C298.941 120.486 298.387 120.241 297.76 120.046L298.244 118.324C298.983 118.492 299.703 118.793 300.406 119.225C301.103 119.662 301.71 120.205 302.229 120.856C303.017 121.844 303.473 122.857 303.595 123.896C303.706 124.933 303.518 125.942 303.032 126.923C302.541 127.898 301.783 128.795 300.757 129.613C299.763 130.407 298.733 130.937 297.666 131.204C296.595 131.465 295.573 131.447 294.599 131.149C293.625 130.852 292.776 130.249 292.052 129.343C291.035 128.067 290.672 126.714 290.963 125.284C291.244 123.852 292.141 122.533 293.654 121.326C293.823 121.191 293.988 121.064 294.15 120.946C294.311 120.827 294.456 120.727 294.585 120.645L299.861 127.258ZM293.445 128.201C294.008 128.908 294.725 129.293 295.594 129.357C296.464 129.421 297.448 129.07 298.548 128.306L294.626 123.39C293.641 124.207 293.055 125.032 292.87 125.866C292.674 126.697 292.866 127.476 293.445 128.201Z" fill="#EACF35"/>
<path d="M273.896 110.299L285.641 103.772L287.663 105.543L282.725 118.03L280.884 116.418L285.287 106.125L275.675 111.856L273.896 110.299Z" fill="#EACF35"/>
<path d="M268.025 97.2422C268.687 96.016 268.886 94.9549 268.622 94.0588C268.351 93.1586 267.807 92.4634 266.991 91.9731C266.449 91.6476 265.903 91.4312 265.351 91.3239C264.8 91.2165 264.196 91.1805 263.54 91.2158L263.393 89.4335C264.144 89.3337 264.924 89.3637 265.733 89.5233C266.538 89.6898 267.298 89.9873 268.011 90.4158C269.094 91.0668 269.874 91.8575 270.351 92.788C270.817 93.7212 270.994 94.7325 270.88 95.8218C270.76 96.907 270.363 98.0119 269.687 99.1365C269.032 100.227 268.251 101.083 267.345 101.706C266.433 102.324 265.468 102.663 264.451 102.725C263.435 102.786 262.429 102.518 261.435 101.92C260.036 101.08 259.224 99.9383 258.998 98.4963C258.762 97.0569 259.142 95.5075 260.139 93.8479C260.25 93.6628 260.361 93.4866 260.471 93.3192C260.581 93.1519 260.681 93.0072 260.773 92.8852L268.025 97.2422ZM262.341 100.365C263.116 100.83 263.922 100.941 264.759 100.698C265.596 100.454 266.397 99.7821 267.16 98.6822L261.77 95.4439C261.131 96.5534 260.871 97.5308 260.988 98.376C261.095 99.224 261.546 99.8869 262.341 100.365Z" fill="#EACF35"/>
<path d="M241.186 97.1451L246.322 83.6152C246.538 83.0468 246.515 82.5762 246.255 82.2034C245.991 81.8381 245.583 81.5504 245.029 81.3403C244.678 81.2069 244.332 81.1142 243.992 81.0622C243.642 81.0149 243.29 80.9967 242.935 81.0074L242.958 79.2575C243.352 79.2104 243.82 79.217 244.362 79.2772C244.904 79.3374 245.485 79.4854 246.106 79.721C247.22 80.1441 247.989 80.7909 248.411 81.6616C248.826 82.5293 248.828 83.5055 248.416 84.59L243.962 96.3249L247.563 97.692L246.941 99.3299L241.186 97.1451Z" fill="#EACF35"/>
<path d="M223.339 86.9347C221.561 86.6028 220.323 85.7612 219.623 84.4098C218.915 83.0569 218.746 81.3935 219.114 79.4196C219.354 78.1378 219.777 77.045 220.386 76.1413C220.986 75.2361 221.743 74.5839 222.655 74.1847C223.568 73.7854 224.614 73.6959 225.794 73.9162C227.571 74.2481 228.818 75.0912 229.533 76.4456C230.241 77.7984 230.41 79.4618 230.042 81.4357C229.801 82.7254 229.381 83.8189 228.782 84.7162C228.174 85.62 227.414 86.2714 226.501 86.6707C225.58 87.0684 224.526 87.1564 223.339 86.9347ZM223.676 85.1299C224.698 85.3208 225.541 85.0794 226.203 84.4056C226.865 83.7397 227.346 82.6007 227.647 80.9886C227.945 79.3922 227.911 78.1609 227.543 77.2948C227.175 76.4365 226.479 75.9119 225.457 75.721C224.435 75.5301 223.597 75.7683 222.943 76.4357C222.288 77.1109 221.81 78.2546 221.509 79.8668C221.209 81.471 221.244 82.7023 221.613 83.5606C221.981 84.4188 222.669 84.9419 223.676 85.1299Z" fill="#EACF35"/>
<path d="M201.878 84.7018C200.758 84.6946 199.863 84.4129 199.195 83.8566C198.526 83.3083 198.047 82.5372 197.758 81.5434C197.468 80.5575 197.327 79.3966 197.336 78.0606C197.344 76.7806 197.531 75.6418 197.898 74.6441C198.264 73.6465 198.809 72.8619 199.533 72.2905C200.256 71.7272 201.162 71.4489 202.25 71.4559C203.61 71.4646 204.703 71.9516 205.529 72.9169L205.567 66.929L207.873 66.6678L207.759 84.4394L205.779 84.4267L205.622 82.7217C204.638 84.0514 203.389 84.7115 201.878 84.7018ZM202.477 82.8936C203.133 82.8978 203.714 82.7015 204.221 82.3047C204.727 81.916 205.146 81.4706 205.477 80.9687L205.517 74.8489C205.2 74.3748 204.81 74.0003 204.348 73.7254C203.885 73.4584 203.37 73.3231 202.802 73.3195C201.81 73.3131 201.06 73.6923 200.551 74.4571C200.042 75.2299 199.782 76.4362 199.772 78.0762C199.761 79.7162 199.978 80.9256 200.421 81.7044C200.864 82.4913 201.549 82.8877 202.477 82.8936Z" fill="#EACF35"/>
<path d="M184.003 78.3323C183.702 76.9718 183.159 76.039 182.373 75.5339C181.579 75.0302 180.713 74.8597 179.775 75.0225C179.153 75.1305 178.598 75.3243 178.11 75.6037C177.623 75.8831 177.143 76.2507 176.67 76.7062L175.393 75.4541C175.895 74.8878 176.505 74.4004 177.222 73.9919C177.94 73.5912 178.709 73.3198 179.528 73.1775C180.774 72.9614 181.881 73.0494 182.85 73.4415C183.813 73.8428 184.608 74.4925 185.235 75.3905C185.854 76.29 186.275 77.386 186.499 78.6787C186.717 79.932 186.687 81.0902 186.408 82.1535C186.122 83.2181 185.614 84.1059 184.885 84.8171C184.156 85.5282 183.22 85.9829 182.077 86.1813C180.469 86.4603 179.108 86.128 177.995 85.1845C176.874 84.2503 176.149 82.8294 175.818 80.9219C175.781 80.7091 175.749 80.5035 175.723 80.3051C175.697 80.1067 175.678 79.9312 175.668 79.7787L184.003 78.3323ZM181.746 84.4119C182.636 84.2573 183.319 83.8141 183.792 83.0823C184.266 82.3506 184.432 81.319 184.291 79.9876L178.095 81.0626C178.338 82.3197 178.78 83.2295 179.421 83.7921C180.057 84.3639 180.831 84.5705 181.746 84.4119Z" fill="#EACF35"/>
<path d="M162.322 77.4099L162.906 79.0106L161.103 79.669L164.271 88.3487L166.075 87.6903L166.659 89.291L163.198 90.5543L161.788 87.9141C161.696 89.0631 161.419 90.02 160.958 90.7847C160.491 91.5597 159.732 92.1392 158.68 92.5232C158.334 92.6494 158.02 92.7342 157.738 92.7777C157.448 92.8238 157.149 92.8563 156.841 92.8751L155.656 88.5809L157.325 87.9719L158.23 90.4518L158.241 90.4477C160.022 89.7975 160.835 88.0574 160.679 85.2273L158.938 80.459L156.526 81.3396L155.942 79.739L162.322 77.4099Z" fill="#EACF35"/>
<path d="M126.147 107.547C125.69 107.936 125.223 108.177 124.745 108.27C124.266 108.363 123.798 108.394 123.341 108.363C122.878 108.338 122.453 108.333 122.066 108.347C121.679 108.362 121.345 108.489 121.065 108.728C120.688 109.05 120.478 109.476 120.436 110.006C120.4 110.542 120.45 111.131 120.586 111.771L118.91 112.192C118.772 111.648 118.678 111.076 118.629 110.476C118.574 109.881 118.631 109.301 118.8 108.736C118.975 108.177 119.33 107.669 119.866 107.212C120.292 106.848 120.741 106.623 121.213 106.535C121.686 106.448 122.156 106.414 122.626 106.434C123.089 106.459 123.52 106.459 123.919 106.434C124.319 106.409 124.661 106.275 124.947 106.03C125.337 105.698 125.547 105.266 125.578 104.735C125.613 104.211 125.563 103.628 125.426 102.987L127.095 102.557C127.228 103.096 127.322 103.662 127.377 104.257C127.438 104.857 127.383 105.44 127.213 106.006C127.044 106.571 126.688 107.085 126.147 107.547Z" fill="#EACF35"/>
<path d="M193.804 128.612V157.86C193.804 159.823 193.538 161.732 193.004 163.588C192.471 165.444 191.596 167.119 190.38 168.612C189.186 170.106 187.596 171.29 185.612 172.164C183.628 173.039 181.196 173.476 178.316 173.476C173.751 173.476 169.644 172.132 165.996 169.444L168.716 165.316C170.551 166.511 172.236 167.311 173.772 167.716C175.33 168.122 176.791 168.324 178.156 168.324C181.079 168.324 183.362 167.386 185.004 165.508C186.647 163.61 187.468 160.975 187.468 157.604V133.636H174.316V128.612H193.804ZM214.963 133.604V148.452H231.955V153.412H214.963V172.708H208.627V128.612H235.091L234.355 133.604H214.963Z" fill="#EACF35"/>
<rect x="107.708" y="198.708" width="184" height="9" fill="#EACF35"/>
<path d="M199.364 270.388C199.364 272.948 198.714 275.22 197.412 277.204C196.132 279.167 194.266 280.714 191.812 281.844C189.38 282.954 186.426 283.508 182.948 283.508C179.578 283.508 176.57 282.996 173.924 281.972C171.279 280.948 169.028 279.54 167.172 277.748L170.788 273.684C172.324 275.114 174.084 276.244 176.068 277.076C178.052 277.908 180.367 278.324 183.012 278.324C184.74 278.324 186.34 278.047 187.812 277.492C189.306 276.916 190.5 276.063 191.396 274.932C192.314 273.78 192.772 272.34 192.772 270.612C192.772 269.247 192.495 268.084 191.94 267.124C191.407 266.143 190.458 265.279 189.092 264.532C187.727 263.786 185.818 263.05 183.364 262.324C178.884 261.002 175.396 259.391 172.9 257.492C170.404 255.594 169.156 252.895 169.156 249.396C169.156 247.114 169.786 245.108 171.044 243.38C172.303 241.631 174.031 240.266 176.228 239.284C178.426 238.303 180.954 237.812 183.812 237.812C186.906 237.812 189.604 238.26 191.908 239.156C194.234 240.052 196.324 241.322 198.18 242.964L194.66 246.932C193.082 245.546 191.386 244.543 189.572 243.924C187.78 243.284 185.956 242.964 184.1 242.964C181.754 242.964 179.759 243.476 178.116 244.5C176.474 245.503 175.652 247.039 175.652 249.108C175.652 250.346 175.983 251.402 176.644 252.276C177.306 253.13 178.415 253.919 179.972 254.644C181.551 255.37 183.706 256.138 186.436 256.948C188.804 257.652 190.959 258.516 192.9 259.54C194.863 260.543 196.431 261.908 197.604 263.636C198.778 265.343 199.364 267.594 199.364 270.388ZM238.667 260.436C238.667 265.023 238.07 268.778 236.875 271.7C235.681 274.623 234.091 276.884 232.107 278.484C230.145 280.063 227.979 281.162 225.611 281.78C223.243 282.399 220.875 282.708 218.507 282.708H208.107V238.612H217.803C220.427 238.612 222.977 238.9 225.451 239.476C227.926 240.052 230.155 241.119 232.139 242.676C234.145 244.212 235.734 246.41 236.907 249.268C238.081 252.127 238.667 255.85 238.667 260.436ZM231.947 260.436C231.947 256.746 231.563 253.78 230.795 251.54C230.049 249.3 229.046 247.615 227.787 246.484C226.529 245.354 225.142 244.596 223.627 244.212C222.134 243.828 220.641 243.636 219.147 243.636H214.443V277.748H219.211C220.769 277.748 222.305 277.503 223.819 277.012C225.334 276.522 226.699 275.647 227.915 274.388C229.153 273.13 230.134 271.37 230.859 269.108C231.585 266.847 231.947 263.956 231.947 260.436Z" fill="#EACF35"/>
<defs>
<linearGradient id="paint0_linear" x1="79.0948" y1="245.179" x2="293.28" y2="276.49" gradientUnits="userSpaceOnUse">
<stop stop-color="#8E3F9A"/>
<stop offset="1" stop-color="#8E3F9A" stop-opacity="0"/>
</linearGradient>
</defs>
</svg>
